<?xml version="1.0" encoding="UTF-8" standalone="no"?>
<!-- Created with Inkscape (http://www.inkscape.org/) -->

<svg
   xmlns:dc="http://purl.org/dc/elements/1.1/"
   xmlns:cc="http://creativecommons.org/ns#"
   xmlns:rdf="http://www.w3.org/1999/02/22-rdf-syntax-ns#"
   xmlns:svg="http://www.w3.org/2000/svg"
   xmlns="http://www.w3.org/2000/svg"
   version="1.1"
   width="554.91248"
   height="122.8"
   id="svg3126"
   xml:space="preserve"><metadata
     id="metadata3132"><rdf:RDF><cc:Work
         rdf:about=""><dc:format>image/svg+xml</dc:format><dc:type
           rdf:resource="http://purl.org/dc/dcmitype/StillImage" /><dc:title></dc:title></cc:Work></rdf:RDF></metadata><defs
     id="defs3130" /><g
     transform="matrix(1.25,0,0,-1.25,0,122.8)"
     id="g3134"><g
       transform="scale(0.1,0.1)"
       id="g3136"><path
         d="m 913.082,618.555 c -8.957,3.129 -19.176,4.644 -27.73,4.644 -23.434,0 -41.661,-12.304 -41.661,-35.328 0,-40.383 55.805,-32.355 55.805,-61.379 0,-15.254 -14.883,-21.18 -25.476,-21.18 -9.489,0 -20.637,3.661 -26.965,6.297 l -1.864,-17.285 c 8.559,-2.84 17.477,-5.39 26.606,-5.39 26.031,0 47.391,10.91 47.391,38.671 0,42.805 -55.766,37.004 -55.766,61.965 0,13.504 12.258,17.266 22.695,17.266 9.66,0 14.86,-1.668 24.348,-5.406 l 2.617,17.125 0,0 z m -164.027,-127.422 72.703,0 0,16.387 -54.137,0 0,42.742 49.293,0 0,16.418 -49.293,0 0,37.91 54.137,0 0,16.351 -72.703,0 0,-129.808 z m -139.11,0 18.617,0 0,106.765 0.36,0 58.746,-106.765 23.812,0 0,129.808 -18.613,0 0,-104.457 -0.379,0 -57.258,104.457 -25.285,0 0,-129.808 z m -134.265,0 18.601,0 0,106.765 0.375,0 58.75,-106.765 23.817,0 0,129.808 -18.614,0 0,-104.457 -0.371,0 -57.269,104.457 -25.289,0 0,-129.808 z m -50.598,47.996 -51.68,0 25.836,64.316 25.844,-64.316 0,0 z m -90.379,-47.996 19.527,0 13.211,32.793 63.621,0 13.196,-32.793 20.269,0 -54.871,129.808 -19.504,0 -55.449,-129.808 0,0 z m -107.851,0 18.597,0 0,59.129 62.125,0 0,-59.129 18.61,0 0,129.808 -18.61,0 0,-54.261 -62.125,0 0,54.261 -18.597,0 0,-129.808 z M 76.4141,556.047 c 0,-39.426 22.8789,-67.113 62.5119,-67.113 39.594,0 62.457,27.687 62.457,67.113 0,38.5 -23.055,67.152 -62.457,67.152 -39.4612,0 -62.5119,-28.652 -62.5119,-67.152 l 0,0 z m 19.7148,0 c 0,26.422 14.1371,50.984 42.7971,50.789 28.633,0.195 42.754,-24.367 42.754,-50.789 0,-25.785 -12.852,-50.735 -42.754,-50.735 -29.942,0 -42.7971,24.95 -42.7971,50.735 l 0,0 z M 0,491.133 c 3.87109,-1.445 9.09375,-2.199 15.0469,-2.199 28.0742,0 36.4453,17.472 36.4453,35.703 l 0,96.304 -18.586,0 0,-90.394 c 0,-15.762 -4.4687,-25.235 -21.2109,-25.235 -3.55077,0 -7.6328,0.333 -11.6953,1.844 l 0,-16.023"
         id="path3138"
         style="fill:#a7a5a6;fill-opacity:1;fill-rule:nonzero;stroke:none" /><path
         d="m 2985,282.852 89.85,0 0,16.398 -68.22,0 67.09,96.715 0,16.777 -86.45,0 0,-16.375 65.04,0 -67.31,-96.711 0,-16.804 z m -121.98,0 18.62,0 0,106.804 0.36,0 58.77,-106.804 23.83,0 0,129.89 -18.64,0 0,-104.57 -0.37,0 -57.26,104.57 -25.31,0 0,-129.89 z m -57.1,0 18.59,0 0,129.89 -18.59,0 0,-129.89 z m -51.63,47.988 -51.71,0 25.86,64.414 25.85,-64.414 0,0 z m -90.39,-47.988 19.51,0 13.14,32.761 63.61,0 13.26,-32.761 20.27,0 -54.89,129.89 -19.47,0 -55.43,-129.89 0,0 z m -153.65,0 18.62,0 0,112.402 0.38,0 42.92,-112.402 18.29,0 42.93,112.402 0.34,0 0,-112.402 18.6,0 0,129.89 -30.65,0 -40.01,-107.898 -40.72,107.898 -30.7,0 0,-129.89"
         id="path3140"
         style="fill:#a7a5a6;fill-opacity:1;fill-rule:nonzero;stroke:none" /><path
         d="m 2333.95,190.977 31.82,0 0,193.945 68.97,0 0,27.93 -169.77,0 0,-27.93 68.98,0 0,-193.945 z m -102.32,82.05 -88.37,0 44.2,109.961 44.17,-109.961 0,0 z m -154.48,-82.05 33.38,0 22.56,55.957 108.7,0 22.59,-55.957 34.66,0 -93.78,221.875 -33.38,0 -94.73,-221.875 0,0 z m 122.04,240.378 29.9,0 0,31.75 -29.9,0 0,-31.75 z m -52.13,0 29.88,0 0,31.75 -29.88,0 0,-31.75 z m -136.71,-240.378 31.8,0 0,193.945 68.99,0 0,27.93 -169.71,0 0,-27.93 68.92,0 0,-193.945 z m -129.38,0 31.8,0 0,221.875 -31.8,0 0,-221.875 z m -60.05,217.8 c -15.27,5.364 -32.73,7.895 -47.42,7.895 -40.03,0 -71.15,-20.949 -71.15,-60.414 0,-68.914 95.36,-55.281 95.36,-104.871 0,-26.035 -25.45,-36.282 -43.52,-36.282 -16.26,0 -35.33,6.36 -46.12,10.852 l -3.18,-29.602 c 14.62,-4.746 29.85,-9.226 45.46,-9.226 44.55,0 81.05,18.836 81.05,66.172 0,73.078 -95.36,63.25 -95.36,105.859 0,23.192 21,29.59 38.79,29.59 16.5,0 25.41,-2.918 41.68,-9.238 l 4.41,29.265 0,0 z m -279.1,-23.855 30.5,0 c 29.24,0 44.51,-12.746 44.51,-32.766 0,-21.316 -17.8,-34.609 -48,-34.609 l -27.01,0 0,67.375 z M 1510,190.977 l 31.82,0 0,98.543 19.07,0 c 16.84,0 27.36,0 37.22,-21.571 l 33.98,-76.972 36.26,0 -41.97,88.367 c -7.01,13.73 -11.74,18.449 -21.63,22.218 l 0,0.704 c 25.74,4.394 45.77,23.488 45.77,50.515 0,53.117 -42.25,60.071 -86.13,60.071 l -54.39,0 0,-221.875 z m -182.78,0 124.32,0 0,28.007 -92.52,0 0,73.106 84.23,0 0,27.976 -84.23,0 0,64.856 92.52,0 0,27.93 -124.32,0 0,-221.875 z m -28.58,221.875 -33.4,0 -70.24,-193.868 -0.62,0 -68.37,193.868 -35.57,0 83.6,-221.875 39.72,0 84.88,221.875 0,0 z m -267.02,-221.875 31.78,0 0,221.875 -31.78,0 0,-221.875 z m -236.198,0 31.801,0 0,182.488 0.625,0 100.464,-182.488 40.68,0 0,221.875 -31.789,0 0,-178.641 -0.633,0 -97.914,178.641 -43.234,0 0,-221.875 z m -59.738,221.875 -31.801,0 0,-125.848 c 0,-42.602 -13.371,-71.899 -54.371,-71.899 -41,0 -54.375,29.297 -54.375,71.899 l 0,125.848 -31.754,0 0,-130.02 c 0,-62.238 31.461,-95.703 86.129,-95.703 54.703,0 86.172,33.465 86.172,95.703 l 0,130.02"
         id="path3142"
         style="fill:#a7a5a6;fill-opacity:1;fill-rule:nonzero;stroke:none" /><path
         d="m 2812.83,706.59 c -18.53,6.375 -32.73,11.117 -65.17,11.117 -67.73,0 -117.32,-45.453 -117.32,-113.82 0,-70.547 46.71,-115.645 117.01,-115.645 34.64,0 55.58,5.703 67.66,9.852 l 0,115.34 -78.53,0 0,-26.032 46.82,0 0,-67.441 c -8.04,-1.535 -13.72,-3.75 -35.64,-3.75 -46.1,0 -83.59,34.609 -83.59,86.715 0,49.613 33.95,86.804 85.14,86.804 28.64,0 45.43,-5.085 61.01,-15.269 l 2.61,32.129 0,0 z m -332.27,-20.633 30.62,0 c 29.2,0 44.46,-12.715 44.46,-32.777 0,-21.27 -17.85,-34.625 -48,-34.625 l -27.08,0 0,67.402 z m -31.74,-193.965 31.74,0 0,98.61 19.12,0 c 16.83,0 27.34,0 37.2,-21.668 l 33.99,-76.942 36.23,0 -41.91,88.418 c -7.03,13.649 -11.8,18.387 -21.63,22.231 l 0,0.64 c 25.77,4.442 45.78,23.512 45.78,50.528 0,53.089 -42.27,60.058 -86.18,60.058 l -54.34,0 0,-221.875 z m -179.57,0 124.24,0 0,27.969 -92.46,0 0,73.101 84.18,0 0,27.997 -84.18,0 0,64.898 92.46,0 0,27.91 -124.24,0 0,-221.875 z m -173.93,195.84 33.38,0 c 18.46,0 41.06,-6.656 41.06,-33.031 0,-32.754 -26.13,-35.613 -56.94,-35.613 l -17.5,0 0,68.644 z m 0,-94.77 20.66,0 c 27.35,0 57.54,-4.73 57.54,-39.039 0,-29.921 -25.74,-35.949 -54.33,-35.949 l -23.87,0 0,74.988 z m -31.77,-101.07 59.14,0 c 45.18,0 84.52,11.492 84.52,59.16 0,31.16 -21.29,50.844 -51.45,53.391 l 0,0.625 c 27.98,6.996 45.73,22.25 45.73,52.816 0,40.961 -31.73,55.883 -77.84,55.883 l -60.1,0 0,-221.875 z m -246.97,0 31.76,0 0,182.469 0.65,0 100.38,-182.469 40.75,0 0,221.875 -31.77,0 0,-178.652 -0.65,0 -97.93,178.652 -43.19,0 0,-221.875 z m -184.41,0 124.28,0 0,27.969 -92.48,0 0,73.101 84.23,0 0,27.997 -84.23,0 0,64.898 92.48,0 0,27.91 -124.28,0 0,-221.875 z m -127.78,0 31.78,0 0,193.965 68.98,0 0,27.91 -169.74,0 0,-27.91 68.98,0 0,-193.965 z m -91.54,221.875 -31.81,0 0,-125.84 c 0,-42.589 -13.35,-71.816 -54.37,-71.816 -40.97,0 -54.33,29.227 -54.33,71.816 l 0,125.84 -31.81,0 0,-129.972 c 0,-62.293 31.5,-95.653 86.14,-95.653 54.72,0 86.18,33.36 86.18,95.653 l 0,129.972 z m -231.11,-7.277 c -18.45,6.375 -32.72,11.117 -65.14,11.117 -67.73,0 -117.327,-45.453 -117.327,-113.82 0,-70.547 46.727,-115.645 116.977,-115.645 34.65,0 55.6,5.703 67.73,9.852 l 0,115.34 -78.55,0 0,-26.032 46.73,0 0,-67.441 c -7.94,-1.535 -13.65,-3.75 -35.56,-3.75 -46.12,0 -83.61,34.609 -83.61,86.715 0,49.613 33.99,86.804 85.18,86.804 28.6,0 45.42,-5.085 61.01,-15.269 l 2.56,32.129 0,0"
         id="path3144"
         style="fill:#a7a5a6;fill-opacity:1;fill-rule:nonzero;stroke:none" /><path
         d="m 3456.77,982.441 0,-982.441 982.5,0 0,982.441 -982.5,0 0,0"
         id="path3146"
         style="fill:#c4122d;fill-opacity:1;fill-rule:nonzero;stroke:none" /><path
         d="m 3949.11,441.836 c 0,18.836 4.7,21.023 22.07,21.023 l 4.35,0 c 1.85,0 2.55,4.329 2.55,7.969 0,1.801 0.37,4.699 -2.18,4.699 l -104.65,0 c -3.28,0 -3.69,-3.632 -3.69,-8.339 0,-3.614 0.76,-5.782 2.55,-5.782 l 26.8,0 c 15.25,0 24.71,-5.441 24.71,-23.566 l 0,-24.969 c 0,-22.101 -22.16,-40.93 -64.92,-40.93 -56.48,0 -103.9,55.766 -103.9,119.145 0,86.941 66.97,118.465 109.69,118.465 47.8,0 69.95,-27.531 74.62,-55.059 0.4,-1.457 2.18,-1.457 4.34,-1.457 1.85,0 7.66,1.106 7.66,3.262 0,15.949 -1.85,44.547 -2.55,47.43 -21.72,11.242 -47.1,19.925 -80.75,19.925 -41.71,0 -153.6,-21.722 -153.6,-139.074 0,-55.047 45.98,-126.726 149.93,-126.726 16.64,0 59.04,5.039 86.97,22.429 l 0,61.555 z m -333.97,-67.715 c 0,-35.137 -2.17,-79.699 -20.28,-79.699 -10.51,0 -13.4,7.98 -16.32,15.969 -2.88,7.609 -6.14,15.547 -18.12,15.547 -9.75,0 -19.92,-7.938 -18.1,-18.458 3.27,-19.582 22.48,-27.187 40.59,-27.187 48.51,0 64.8,49.988 64.8,91.277 l 0,215.879 c 0,16.668 11.24,18.117 25.74,19.18 l 9.77,0.738 1.46,2.184 0,7.234 -1.81,1.817 c -14.51,0 -36.22,-1.817 -54.33,-1.817 -24.61,0 -36.23,1.817 -46.01,1.817 -2.17,0 -5.44,-0.36 -5.81,-4.368 l 0,-5.769 1.82,-1.836 c 30.41,0 36.6,-5.07 36.6,-25.691 l 0,-206.817"
         id="path3148"
         style="fill:#ffffff;fill-opacity:1;fill-rule:nonzero;stroke:none" /><path
         d="m 4337.29,618.777 -36.88,0 0,-146.211 c 0,-49.461 -15.49,-83.437 -63.18,-83.437 -47.59,0 -63.05,33.976 -63.05,83.437 l 0,146.211 -36.97,0 0,-150.996 c 0,-72.383 36.57,-111.109 100.02,-111.109 63.55,0 100.06,38.726 100.06,111.109 l 0,150.996"
         id="path3150"
         style="fill:#ffffff;fill-opacity:1;fill-rule:nonzero;stroke:none" /><path
         d="m 4046.15,800.699 0,-609.644 19.64,0 0,609.644 -19.64,0 0,0"
         id="path3152"
         style="fill:#ffffff;fill-opacity:1;fill-rule:nonzero;stroke:none" /></g></g></svg>