<?xml version="1.0" encoding="utf-8"?>
<svg version="1.1" xmlns="http://www.w3.org/2000/svg" width="265.76px" height="265.746px"
	 viewBox="0 0 265.76 265.746" enable-background="new 0 0 265.76 265.746" xml:space="preserve">
<g id="JGU_Logo_Kasten">
	<polygon fill="{color_fill1}" points="0,0 0,265.746 265.76,265.746 265.76,0 0,0"/>
	<path fill="#FFFFFF" d="M42.838,164.549c0,9.498-0.586,21.557-5.484,21.557c-2.842,0-3.627-2.162-4.412-4.318
		c-0.785-2.057-1.67-4.207-4.898-4.207c-2.643,0-5.391,2.15-4.898,4.992c0.879,5.297,6.076,7.354,10.975,7.354
		c13.125,0,17.531-13.523,17.531-24.691V106.84c0-4.506,3.041-4.898,6.961-5.186l2.643-0.199l0.393-0.592v-1.957l-0.486-0.492
		c-3.926,0-9.803,0.492-14.701,0.492c-6.656,0-9.791-0.492-12.445-0.492c-0.586,0-1.465,0.1-1.564,1.184v1.559l0.492,0.498
		c8.227,0,9.896,1.371,9.896,6.949V164.549L42.838,164.549z M133.174,146.227c0-5.092,1.271-5.684,5.965-5.684h1.184
		c0.498,0,0.686-1.172,0.686-2.156c0-0.486,0.1-1.271-0.586-1.271h-28.314c-0.879,0-0.99,0.984-0.99,2.256
		c0,0.979,0.205,1.564,0.691,1.564h7.248c4.121,0,6.676,1.471,6.676,6.369v6.762c0,5.977-5.99,11.068-17.551,11.068
		c-15.281,0-28.113-15.088-28.113-32.227c0-23.52,18.117-32.045,29.678-32.045c12.928,0,18.916,7.447,20.182,14.895
		c0.111,0.393,0.592,0.393,1.178,0.393c0.498,0,2.068-0.299,2.068-0.879c0-4.318-0.498-12.053-0.691-12.832
		c-5.871-3.041-12.74-5.391-21.84-5.391c-11.279,0-41.549,5.877-41.549,37.617c0,14.895,12.439,34.283,40.553,34.283
		c4.506,0,15.975-1.365,23.527-6.07V146.227L133.174,146.227z"/>
	<path fill="#FFFFFF" d="M238.174,98.367h-9.979v39.551c0,13.377-4.189,22.564-17.086,22.564c-12.873,0-17.057-9.188-17.057-22.564
		V98.367h-9.996v40.846c0,19.576,9.891,30.053,27.053,30.053c17.191,0,27.064-10.477,27.064-30.053V98.367L238.174,98.367z"/>
	<polygon fill="#FFFFFF" points="159.424,49.16 159.424,214.066 164.738,214.066 164.738,49.16 159.424,49.16"/>
</g>
</svg>
