<?xml version="1.0" encoding="utf-8"?>
<svg version="1.1" xmlns="http://www.w3.org/2000/svg" width="122.667px" height="63.508px"
	 viewBox="0 0 122.667 63.508" enable-background="new 0 0 122.667 63.508" xml:space="preserve">
<g id="JGU_Logo">
	<path fill="{color_fill2}" d="M0,51.379c0.155,0.06,0.363,0.089,0.6,0.089c1.121,0,1.455-0.697,1.455-1.425v-3.842H1.313v3.606
		c0,0.629-0.178,1.007-0.846,1.007c-0.141,0-0.304-0.014-0.467-0.073V51.379L0,51.379z M3.835,48.79
		c0-1.053,0.564-2.033,1.707-2.025c1.143-0.008,1.706,0.973,1.706,2.025c0,1.03-0.512,2.024-1.706,2.024
		C4.347,50.814,3.835,49.82,3.835,48.79L3.835,48.79z M3.049,48.79c0,1.574,0.913,2.678,2.493,2.678s2.493-1.104,2.493-2.678
		c0-1.535-0.92-2.678-2.493-2.678C3.968,46.112,3.049,47.255,3.049,48.79L3.049,48.79z M9.05,51.379h0.742v-2.358h2.478v2.358
		h0.742v-5.178H12.27v2.165H9.792v-2.165H9.05V51.379L9.05,51.379z M13.353,51.379h0.779l0.527-1.307h2.538l0.526,1.307h0.809
		l-2.189-5.178h-0.778L13.353,51.379L13.353,51.379z M16.959,49.466h-2.063l1.031-2.566L16.959,49.466L16.959,49.466z
		 M18.977,51.379h0.742v-4.258h0.015l2.344,4.258h0.95v-5.178h-0.742v4.169h-0.015l-2.285-4.169h-1.009V51.379L18.977,51.379z
		 M24.333,51.379h0.742v-4.258h0.014l2.344,4.258h0.95v-5.178h-0.742v4.169h-0.015l-2.284-4.169h-1.009V51.379L24.333,51.379z
		 M29.882,51.379h2.9v-0.653h-2.159v-1.705h1.966v-0.654h-1.966v-1.512h2.159v-0.653h-2.9V51.379L29.882,51.379z M36.426,46.298
		c-0.356-0.126-0.764-0.186-1.106-0.186c-0.935,0-1.662,0.49-1.662,1.408c0,1.61,2.226,1.291,2.226,2.449
		c0,0.609-0.594,0.845-1.016,0.845c-0.378,0-0.824-0.146-1.076-0.251l-0.074,0.689c0.341,0.113,0.697,0.215,1.06,0.215
		c1.039,0,1.892-0.436,1.892-1.543c0-1.707-2.225-1.477-2.225-2.471c0-0.54,0.489-0.689,0.905-0.689
		c0.386,0,0.593,0.066,0.972,0.216L36.426,46.298L36.426,46.298z"/>
	<path fill="{color_fill2}" d="M100.142,59.688h0.742v-4.482h0.016l1.713,4.482h0.729l1.713-4.482h0.014v4.482h0.743v-5.181h-1.224
		l-1.596,4.304l-1.625-4.304h-1.225V59.688L100.142,59.688z M106.271,59.688h0.779l0.525-1.307h2.537l0.528,1.307h0.809
		l-2.19-5.181h-0.776L106.271,59.688L106.271,59.688z M109.877,57.774h-2.063l1.031-2.568L109.877,57.774L109.877,57.774z
		 M111.938,59.688h0.741v-5.181h-0.741V59.688L111.938,59.688z M114.216,59.688h0.742v-4.26h0.014l2.345,4.26h0.95v-5.181h-0.742
		v4.171h-0.016l-2.284-4.171h-1.009V59.688L114.216,59.688z M119.083,59.688h3.584v-0.653h-2.724l2.679-3.858v-0.669h-3.45v0.653
		h2.596l-2.685,3.858V59.688L119.083,59.688z"/>
	<path fill="{color_fill2}" d="M29.349,54.502H28.08v5.022c0,1.699-0.533,2.867-2.168,2.867c-1.636,0-2.169-1.168-2.169-2.867v-5.022
		h-1.268v5.188c0,2.482,1.255,3.817,3.437,3.817s3.437-1.335,3.437-3.817V54.502L29.349,54.502z M31.732,63.354H33v-7.28h0.025
		l4.007,7.28h1.623v-8.853h-1.268v7.128h-0.025l-3.906-7.128h-1.725V63.354L31.732,63.354z M41.155,63.354h1.268v-8.853h-1.268
		V63.354L41.155,63.354z M51.807,54.502h-1.332l-2.802,7.735h-0.025l-2.727-7.735H43.5l3.335,8.853h1.585L51.807,54.502
		L51.807,54.502z M52.948,63.354h4.958v-1.117h-3.69v-2.916h3.36v-1.116h-3.36v-2.587h3.69v-1.116h-4.958V63.354L52.948,63.354z
		 M60.24,63.354h1.268v-3.932h0.761c0.672,0,1.091,0,1.484,0.861l1.357,3.07h1.446l-1.674-3.525
		c-0.28-0.547-0.469-0.736-0.863-0.887v-0.027c1.027-0.176,1.827-0.938,1.827-2.016c0-2.119-1.687-2.397-3.437-2.397H60.24V63.354
		L60.24,63.354z M61.508,55.618h1.217c1.167,0,1.775,0.508,1.775,1.307c0,0.85-0.71,1.381-1.915,1.381h-1.078V55.618L61.508,55.618
		z M72.642,54.667c-0.608-0.215-1.306-0.315-1.891-0.315c-1.597,0-2.839,0.835-2.839,2.409c0,2.75,3.804,2.206,3.804,4.185
		c0,1.038-1.015,1.446-1.736,1.446c-0.647,0-1.408-0.254-1.839-0.433l-0.128,1.181c0.584,0.189,1.191,0.368,1.815,0.368
		c1.775,0,3.232-0.751,3.232-2.64c0-2.916-3.804-2.523-3.804-4.223c0-0.926,0.837-1.181,1.547-1.181
		c0.658,0,1.014,0.116,1.662,0.368L72.642,54.667L72.642,54.667z M75.039,63.354h1.269v-8.853h-1.269V63.354L75.039,63.354z
		 M80.2,63.354h1.27v-7.736h2.752v-1.116H77.45v1.116h2.75V63.354L80.2,63.354z M85.654,53.766h1.192v-1.267h-1.192V53.766
		L85.654,53.766z M87.733,53.766h1.192v-1.267h-1.192V53.766L87.733,53.766z M82.864,63.354h1.332l0.9-2.232h4.337l0.9,2.232h1.383
		l-3.741-8.853h-1.332L82.864,63.354L82.864,63.354z M89.028,60.081h-3.526l1.763-4.387L89.028,60.081L89.028,60.081z
		 M93.11,63.354h1.269v-7.736h2.752v-1.116h-6.772v1.116h2.752V63.354L93.11,63.354z"/>
	<path fill="{color_fill2}" d="M47.144,42.785c-0.735-0.254-1.306-0.443-2.6-0.443c-2.701,0-4.68,1.813-4.68,4.54
		c0,2.814,1.864,4.615,4.667,4.615c1.382,0,2.218-0.229,2.701-0.395v-4.602H44.1v1.039h1.864v2.689
		c-0.317,0.063-0.545,0.15-1.42,0.15c-1.839,0-3.335-1.381-3.335-3.46c0-1.979,1.357-3.463,3.398-3.463
		c1.141,0,1.813,0.203,2.435,0.609L47.144,42.785L47.144,42.785z M56.363,42.494h-1.268v5.021c0,1.699-0.533,2.865-2.169,2.865
		c-1.635,0-2.168-1.166-2.168-2.865v-5.021H49.49v5.185c0,2.486,1.255,3.818,3.437,3.818s3.437-1.332,3.437-3.818V42.494
		L56.363,42.494z M60.015,51.347h1.268v-7.738h2.752v-1.114h-6.772v1.114h2.752V51.347L60.015,51.347z M65.113,51.347h4.958v-1.117
		h-3.69v-2.916h3.361v-1.116h-3.361v-2.589h3.69v-1.114h-4.958V51.347L65.113,51.347z M72.469,51.347h1.268v-7.28h0.025l4.006,7.28
		h1.624v-8.853h-1.268v7.128h-0.025l-3.906-7.128h-1.724V51.347L72.469,51.347z M82.322,51.347h2.358
		c1.803,0,3.373-0.459,3.373-2.361c0-1.242-0.85-2.028-2.053-2.129v-0.025c1.115-0.279,1.825-0.888,1.825-2.106
		c0-1.635-1.268-2.23-3.106-2.23h-2.397V51.347L82.322,51.347z M83.59,47.313h0.823c1.091,0,2.295,0.189,2.295,1.558
		c0,1.193-1.026,1.435-2.167,1.435H83.59V47.313L83.59,47.313z M83.59,43.533h1.331c0.736,0,1.637,0.266,1.637,1.318
		c0,1.307-1.041,1.421-2.271,1.421H83.59V43.533L83.59,43.533z M90.528,51.347h4.956v-1.117h-3.688v-2.916h3.358v-1.116h-3.358
		v-2.589h3.688v-1.114h-4.956V51.347L90.528,51.347z M97.692,51.347h1.267v-3.934h0.763c0.671,0,1.09,0,1.483,0.863l1.356,3.07
		h1.444l-1.672-3.527c-0.279-0.545-0.471-0.734-0.862-0.888v-0.025c1.027-0.177,1.825-0.938,1.825-2.016
		c0-2.118-1.685-2.396-3.438-2.396h-2.167V51.347L97.692,51.347z M98.958,43.608h1.22c1.165,0,1.775,0.508,1.775,1.308
		c0,0.849-0.712,1.382-1.916,1.382h-1.079V43.608L98.958,43.608z M112.212,42.785c-0.737-0.254-1.306-0.443-2.6-0.443
		c-2.701,0-4.68,1.813-4.68,4.54c0,2.814,1.863,4.615,4.667,4.615c1.382,0,2.218-0.229,2.7-0.395v-4.602h-3.133v1.039h1.866v2.689
		c-0.318,0.063-0.546,0.15-1.421,0.15c-1.839,0-3.335-1.381-3.335-3.46c0-1.979,1.355-3.463,3.397-3.463
		c1.142,0,1.813,0.203,2.435,0.609L112.212,42.785L112.212,42.785z"/>
	<polygon fill="{color_fill1}" points="53.036,0 53.036,35.434 88.47,35.434 88.47,0 53.036,0"/>
	<path fill="#FFFFFF" d="M58.747,21.94c0,1.266-0.078,2.874-0.731,2.874c-0.379,0-0.483-0.288-0.588-0.576
		c-0.104-0.274-0.223-0.561-0.653-0.561c-0.353,0-0.718,0.287-0.653,0.666c0.117,0.706,0.81,0.981,1.463,0.981
		c1.75,0,2.338-1.804,2.338-3.293v-7.785c0-0.601,0.405-0.653,0.928-0.692l0.353-0.026l0.052-0.079v-0.261l-0.065-0.065
		c-0.523,0-1.307,0.065-1.96,0.065c-0.888,0-1.306-0.065-1.659-0.065c-0.078,0-0.196,0.013-0.209,0.157v0.208l0.066,0.066
		c1.097,0,1.319,0.183,1.319,0.927V21.94L58.747,21.94z M70.792,19.498c0-0.679,0.17-0.758,0.796-0.758h0.157
		c0.066,0,0.092-0.157,0.092-0.288c0-0.065,0.013-0.169-0.078-0.169h-3.775c-0.117,0-0.132,0.131-0.132,0.3
		c0,0.131,0.027,0.208,0.092,0.208h0.967c0.549,0,0.89,0.196,0.89,0.849v0.902c0,0.797-0.798,1.476-2.34,1.476
		c-2.037,0-3.749-2.012-3.749-4.297c0-3.136,2.416-4.272,3.957-4.272c1.724,0,2.522,0.993,2.691,1.985
		c0.015,0.052,0.079,0.052,0.157,0.052c0.066,0,0.275-0.04,0.275-0.117c0-0.575-0.066-1.607-0.092-1.711
		c-0.783-0.405-1.698-0.719-2.912-0.719c-1.504,0-5.54,0.784-5.54,5.016c0,1.986,1.659,4.572,5.408,4.572
		c0.6,0,2.129-0.182,3.136-0.81V19.498L70.792,19.498z"/>
	<path fill="#FFFFFF" d="M84.792,13.116h-1.33v5.273c0,1.784-0.559,3.009-2.278,3.009c-1.717,0-2.274-1.225-2.274-3.009v-5.273
		h-1.333v5.446c0,2.61,1.319,4.007,3.607,4.007c2.292,0,3.608-1.397,3.608-4.007V13.116L84.792,13.116z"/>
	<polygon fill="#FFFFFF" points="74.292,6.555 74.292,28.543 75,28.543 75,6.555 74.292,6.555"/>
</g>
</svg>
