<?xml version="1.0" encoding="UTF-8" standalone="no"?>
<!-- Created with Inkscape (http://www.inkscape.org/) -->

<svg
   xmlns:dc="http://purl.org/dc/elements/1.1/"
   xmlns:cc="http://creativecommons.org/ns#"
   xmlns:rdf="http://www.w3.org/1999/02/22-rdf-syntax-ns#"
   xmlns:svg="http://www.w3.org/2000/svg"
   xmlns="http://www.w3.org/2000/svg"
   version="1.1"
   width="608.77502"
   height="171.21249"
   id="svg3004"
   xml:space="preserve"><metadata
     id="metadata3010"><rdf:RDF><cc:Work
         rdf:about=""><dc:format>image/svg+xml</dc:format><dc:type
           rdf:resource="http://purl.org/dc/dcmitype/StillImage" /><dc:title></dc:title></cc:Work></rdf:RDF></metadata><defs
     id="defs3008"><clipPath
       id="clipPath3020"><path
         d="m 0,0 4870,0 0,1369.72 -4870,0 L 0,0 z"
         id="path3022" /></clipPath></defs><g
     transform="matrix(1.25,0,0,-1.25,0,171.2125)"
     id="g3012"><g
       transform="scale(0.1,0.1)"
       id="g3014"><g
         id="g3016"><g
           clip-path="url(#clipPath3020)"
           id="g3018"><path
             d="m 1891.35,484.039 15.92,0 c 53.28,0 77.33,36.262 77.33,92.879 0,56.609 -24.05,92.875 -77.33,92.875 l -15.92,0 0,-185.754 z m -47.36,222.016 67.34,0 c 80.67,0 123.59,-43.664 123.59,-129.137 0,-86.957 -51.8,-129.141 -123.59,-129.141 l -67.34,0 0,258.278"
             id="path3024"
             style="fill:#7b7979;fill-opacity:1;fill-rule:nonzero;stroke:none" /><path
             d="m 2181.43,541.023 -4.07,0 c -39.23,0 -62.54,-8.14 -62.54,-35.894 0,-17.391 11.48,-29.231 29.24,-29.231 27.38,0 37.37,20.348 37.37,54.391 l 0,10.734 z m -90.29,86.215 c 12.95,5.918 31.09,14.063 60.32,14.063 59.2,0 72.9,-28.86 72.9,-76.598 l 0,-83.254 c 0,-13.691 1.47,-26.269 2.58,-33.672 l -41.44,0 c -2.22,7.403 -2.59,16.649 -2.59,25.903 l -0.74,0 c -11.47,-15.543 -25.9,-28.864 -53.28,-28.864 -29.6,0 -56.99,20.352 -56.99,55.875 0,51.801 42.18,64.75 100.28,64.75 l 9.25,0 0,7.032 c 0,18.875 -9.25,36.265 -35.52,36.265 -22.94,0 -43.29,-11.101 -52.18,-18.5 l -2.59,37"
             id="path3026"
             style="fill:#7b7979;fill-opacity:1;fill-rule:nonzero;stroke:none" /><path
             d="m 2293.16,677.562 45.88,14.063 0,-53.285 38.12,0 0,-33.676 -38.12,0 0,-98.793 c 0,-20.351 7.41,-26.273 20.73,-26.273 8.14,0 14.06,2.222 17.39,4.074 l 0,-32.567 c -7.03,-3.328 -17.02,-6.289 -30.71,-6.289 -34.05,0 -53.29,15.543 -53.29,55.504 l 0,104.344 -30.34,0 0,33.676 30.34,0 0,39.222"
             id="path3028"
             style="fill:#7b7979;fill-opacity:1;fill-rule:nonzero;stroke:none" /><path
             d="m 2520.72,559.523 c 0,33.672 -11.1,50.696 -31.82,50.696 -24.06,0 -34.05,-25.531 -34.05,-50.696 l 65.87,0 z m 34.79,-102.492 c -9.63,-4.074 -29.61,-12.215 -56.99,-12.215 -61.42,0 -88.07,44.036 -88.07,95.465 0,56.989 29.98,101.02 78.45,101.02 41.07,0 76.23,-24.051 76.23,-101.758 l 0,-8.883 -110.28,0 c 0,-32.562 12.95,-52.172 48.48,-52.172 28.13,0 41.45,8.512 49.95,14.801 l 2.23,-36.258"
             id="path3030"
             style="fill:#7b7979;fill-opacity:1;fill-rule:nonzero;stroke:none" /><path
             d="m 2609.88,606.887 c 0,11.843 -0.37,22.941 -1.48,31.453 l 42.93,0 c 0.37,-9.621 1.47,-19.61 1.47,-29.231 l 1.12,0 -0.38,0 c 6.67,11.469 19.61,32.192 50.7,32.192 43.29,0 56.24,-32.192 56.24,-70.68 l 0,-122.844 -45.88,0 0,114.336 c 0,29.235 -7.4,41.446 -26.27,41.446 -24.05,0 -32.57,-20.352 -32.57,-44.778 l 0,-111.004 -45.88,0 0,159.11"
             id="path3032"
             style="fill:#7b7979;fill-opacity:1;fill-rule:nonzero;stroke:none" /><path
             d="m 2794.14,638.34 47.36,0 38.85,-146.902 0.74,0 39.23,146.902 44.4,0 -58.46,-190.563 -54.02,0 -58.1,190.563"
             id="path3034"
             style="fill:#7b7979;fill-opacity:1;fill-rule:nonzero;stroke:none" /><path
             d="m 3103.47,559.523 c 0,33.672 -11.11,50.696 -31.83,50.696 -24.05,0 -34.04,-25.531 -34.04,-50.696 l 65.87,0 z m 34.78,-102.492 c -9.63,-4.074 -29.61,-12.215 -56.99,-12.215 -61.42,0 -88.07,44.036 -88.07,95.465 0,56.989 29.98,101.02 78.45,101.02 41.07,0 76.23,-24.051 76.23,-101.758 l 0,-8.883 -110.27,0 c 0,-32.562 12.95,-52.172 48.47,-52.172 28.13,0 41.45,8.512 49.96,14.801 l 2.22,-36.258"
             id="path3036"
             style="fill:#7b7979;fill-opacity:1;fill-rule:nonzero;stroke:none" /><path
             d="m 3194.1,606.887 c 0,11.843 -0.36,22.941 -1.47,31.453 l 41.44,0 c 0.37,-11.473 1.48,-23.313 1.48,-34.781 l 0.74,0 c 5.55,14.8 19.98,37.742 48.48,37.742 2.95,0 5.17,-0.742 7.76,-1.113 l 0,-42.918 c -4.06,1.109 -8.14,1.847 -12.95,1.847 -18.87,0 -39.59,-11.472 -39.59,-46.996 l 0,-104.344 -45.89,0 0,159.11"
             id="path3038"
             style="fill:#7b7979;fill-opacity:1;fill-rule:nonzero;stroke:none" /><path
             d="m 3427.95,541.023 -4.06,0 c -39.23,0 -62.54,-8.14 -62.54,-35.894 0,-17.391 11.47,-29.231 29.24,-29.231 27.37,0 37.36,20.348 37.36,54.391 l 0,10.734 z m -90.28,86.215 c 12.95,5.918 31.08,14.063 60.31,14.063 59.21,0 72.9,-28.86 72.9,-76.598 l 0,-83.254 c 0,-13.691 1.47,-26.269 2.59,-33.672 l -41.45,0 c -2.22,7.403 -2.59,16.649 -2.59,25.903 l -0.74,0 c -11.46,-15.543 -25.9,-28.864 -53.28,-28.864 -29.6,0 -56.98,20.352 -56.98,55.875 0,51.801 42.18,64.75 100.27,64.75 l 9.25,0 0,7.032 c 0,18.875 -9.25,36.265 -35.52,36.265 -22.94,0 -43.29,-11.101 -52.18,-18.5 l -2.58,37"
             id="path3040"
             style="fill:#7b7979;fill-opacity:1;fill-rule:nonzero;stroke:none" /><path
             d="m 3524.14,606.887 c 0,11.843 -0.36,22.941 -1.47,31.453 l 41.44,0 c 0.37,-11.473 1.48,-23.313 1.48,-34.781 l 0.74,0 c 5.55,14.8 19.98,37.742 48.47,37.742 2.96,0 5.18,-0.742 7.77,-1.113 l 0,-42.918 c -4.06,1.109 -8.14,1.847 -12.95,1.847 -18.87,0 -39.59,-11.472 -39.59,-46.996 l 0,-104.344 -45.89,0 0,159.11"
             id="path3042"
             style="fill:#7b7979;fill-opacity:1;fill-rule:nonzero;stroke:none" /><path
             d="m 3745.03,478.488 c 26.65,0 33.67,22.203 33.67,66.239 0,38.109 -8.88,62.902 -34.4,62.902 -25.17,0 -35.53,-27.016 -35.53,-64.016 0,-35.89 9.25,-65.125 36.26,-65.125 z m -36.26,246.809 0,-114.336 0.74,0 c 6.66,14.801 21.83,30.34 49.21,30.34 41.07,0 65.87,-36.266 65.87,-98.426 0,-52.914 -19.61,-98.059 -66.97,-98.059 -29.61,0 -43.3,16.282 -50.7,32.559 l -1.11,0 c 0,-12.949 -0.74,-24.047 -1.48,-29.598 l -42.92,0 c 1.11,7.032 1.48,18.871 1.48,32.563 l 0,244.957 45.88,0"
             id="path3044"
             style="fill:#7b7979;fill-opacity:1;fill-rule:nonzero;stroke:none" /><path
             d="m 3975.17,559.523 c 0,33.672 -11.11,50.696 -31.83,50.696 -24.05,0 -34.04,-25.531 -34.04,-50.696 l 65.87,0 z m 34.78,-102.492 c -9.63,-4.074 -29.61,-12.215 -56.99,-12.215 -61.42,0 -88.07,44.036 -88.07,95.465 0,56.989 29.98,101.02 78.45,101.02 41.07,0 76.23,-24.051 76.23,-101.758 l 0,-8.883 -110.27,0 c 0,-32.562 12.95,-52.172 48.47,-52.172 28.13,0 41.45,8.512 49.95,14.801 l 2.23,-36.258"
             id="path3046"
             style="fill:#7b7979;fill-opacity:1;fill-rule:nonzero;stroke:none" /><path
             d="m 4068.77,638.34 45.88,0 0,-190.563 -45.88,0 0,190.563 z m -0.74,81.031 47.36,0 0,-45.141 -47.36,0 0,45.141"
             id="path3048"
             style="fill:#7b7979;fill-opacity:1;fill-rule:nonzero;stroke:none" /><path
             d="m 4186.81,677.562 45.88,14.063 0,-53.285 38.11,0 0,-33.676 -38.11,0 0,-98.793 c 0,-20.351 7.4,-26.273 20.72,-26.273 8.14,0 14.06,2.222 17.39,4.074 l 0,-32.567 c -7.03,-3.328 -17.02,-6.289 -30.71,-6.289 -34.05,0 -53.28,15.543 -53.28,55.504 l 0,104.344 -30.35,0 0,33.676 30.35,0 0,39.222"
             id="path3050"
             style="fill:#7b7979;fill-opacity:1;fill-rule:nonzero;stroke:none" /><path
             d="m 4459.86,479.227 c 0,-11.84 0.37,-22.942 1.49,-31.45 l -42.92,0 c -0.37,9.618 -1.49,19.61 -1.49,29.235 l -1.11,0.363 0.37,-0.363 c -8.88,-14.063 -20.72,-32.196 -50.69,-32.196 -43.29,0 -56.24,32.196 -56.24,70.676 l 0,122.848 45.88,0 0,-114.336 c 0,-29.234 8.14,-41.445 27.38,-41.445 24.42,0 31.45,22.199 31.45,46.625 l 0,109.156 45.88,0 0,-159.113"
             id="path3052"
             style="fill:#7b7979;fill-opacity:1;fill-rule:nonzero;stroke:none" /><path
             d="m 4510.55,606.887 c 0,11.843 -0.37,22.941 -1.49,31.453 l 42.93,0 c 0.37,-9.621 1.48,-19.61 1.48,-29.231 l 1.11,0 -0.37,0 c 6.66,11.469 19.61,32.192 50.69,32.192 43.29,0 56.24,-32.192 56.24,-70.68 l 0,-122.844 -45.88,0 0,114.336 c 0,29.235 -7.4,41.446 -26.27,41.446 -24.05,0 -32.56,-20.352 -32.56,-44.778 l 0,-111.004 -45.88,0 0,159.11"
             id="path3054"
             style="fill:#7b7979;fill-opacity:1;fill-rule:nonzero;stroke:none" /><path
             d="m 4783.98,481.449 c 28.86,0 40.34,20.723 40.34,64.012 0,39.969 -15.18,61.426 -37.01,61.055 -24.05,-0.371 -33.31,-22.567 -33.31,-61.426 0,-44.77 14.44,-63.641 29.98,-63.641 z m -66.24,-63.273 c 10.74,-5.922 32.2,-16.281 56.24,-16.281 43.31,0 50.34,29.968 50.34,59.945 l 0,18.129 -0.75,0 c -7.4,-14.801 -20.35,-32.192 -50.32,-32.192 -26.64,0 -66.61,17.762 -66.61,94.727 0,52.543 18.88,98.797 68.83,98.797 27.75,0 40.7,-15.91 50.32,-32.563 l 1.49,0 c 0,9.992 1.1,19.61 1.47,29.602 l 41.45,0 c -0.75,-9.992 -1.49,-19.981 -1.49,-29.973 l 0,-140.609 c 0,-59.574 -18.12,-102.129 -88.06,-102.129 -30.34,0 -54.39,7.773 -65.49,11.844 l 2.58,40.703"
             id="path3056"
             style="fill:#7b7979;fill-opacity:1;fill-rule:nonzero;stroke:none" /><path
             d="m 1846.88,877.98 74.25,130.68 -72.09,0 0,27.54 112.32,0 0,-28.62 -75.06,-132.303 76.14,0 0,-27.539 -115.56,0 0,30.242"
             id="path3058"
             style="fill:#7b7979;fill-opacity:1;fill-rule:nonzero;stroke:none" /><path
             d="m 2072.88,929.281 c 0,24.657 -7.75,36.992 -23.23,36.992 -4.32,0 -8.05,-1.085 -11.2,-3.242 -3.15,-2.16 -5.76,-4.953 -7.83,-8.371 -2.07,-3.418 -3.56,-7.383 -4.46,-11.883 -0.9,-4.504 -1.35,-9.004 -1.35,-13.496 l 48.07,0 z m 25.37,-74.797 c -3.6,-1.433 -8.9,-3.281 -15.93,-5.527 -7.02,-2.254 -15.57,-3.379 -25.65,-3.379 -11.16,0 -20.79,1.895 -28.89,5.676 -8.1,3.777 -14.76,8.816 -19.98,15.117 -5.22,6.297 -9.09,13.68 -11.6,22.137 -2.53,8.457 -3.79,17.375 -3.79,26.73 0,10.438 1.31,20.117 3.92,29.024 2.61,8.914 6.38,16.699 11.34,23.359 4.95,6.66 10.98,11.875 18.09,15.664 7.11,3.777 15.07,5.664 23.89,5.664 7.56,0 14.67,-1.211 21.34,-3.644 6.65,-2.43 12.55,-6.524 17.68,-12.285 5.13,-5.762 9.18,-13.368 12.15,-22.813 2.97,-9.453 4.45,-21.289 4.45,-35.508 l 0,-6.484 -80.46,0 c 0,-11.875 2.66,-21.192 7.97,-27.938 5.31,-6.75 14.45,-10.129 27.41,-10.129 10.25,0 18.13,1.211 23.62,3.645 5.49,2.43 9.76,4.812 12.83,7.156 l 1.61,-26.465"
             id="path3060"
             style="fill:#7b7979;fill-opacity:1;fill-rule:nonzero;stroke:none" /><path
             d="m 2140.11,963.84 c 0,4.316 -0.1,8.457 -0.28,12.422 -0.18,3.957 -0.45,7.461 -0.81,10.527 l 31.33,0 c 0.17,-3.601 0.4,-7.156 0.67,-10.664 0.27,-3.516 0.41,-7.07 0.41,-10.664 l 0.54,0 c 1.25,2.16 2.83,4.59 4.72,7.285 1.89,2.707 4.27,5.266 7.16,7.695 2.87,2.434 6.34,4.454 10.39,6.075 4.05,1.621 8.95,2.433 14.72,2.433 7.92,0 14.48,-1.347 19.71,-4.054 5.21,-2.696 9.4,-6.434 12.55,-11.2 3.15,-4.777 5.4,-10.265 6.75,-16.465 1.35,-6.21 2.03,-12.832 2.03,-19.855 l 0,-89.637 -33.49,0 0,83.426 c 0,10.801 -1.48,18.547 -4.45,23.223 -2.97,4.679 -7.88,7.023 -14.72,7.023 -4.31,0 -8,-0.859 -11.07,-2.57 -3.06,-1.707 -5.53,-4.043 -7.42,-7.012 -1.89,-2.976 -3.24,-6.445 -4.05,-10.398 -0.81,-3.965 -1.22,-8.196 -1.22,-12.688 l 0,-81.004 -33.47,0 0,116.102"
             id="path3062"
             style="fill:#7b7979;fill-opacity:1;fill-rule:nonzero;stroke:none" /><path
             d="m 2301.55,1015.41 33.49,10.26 0,-38.881 27.8,0 0,-24.57 -27.8,0 0,-72.09 c 0,-7.559 1.3,-12.645 3.92,-15.254 2.6,-2.617 6.34,-3.914 11.2,-3.914 3.05,0 5.62,0.312 7.69,0.945 2.07,0.625 3.74,1.301 4.99,2.024 l 0,-23.762 c -2.52,-1.258 -5.62,-2.344 -9.3,-3.242 -3.7,-0.899 -8.06,-1.348 -13.1,-1.348 -12.42,0 -22.01,3.106 -28.75,9.317 -6.76,6.21 -10.14,16.601 -10.14,31.183 l 0,76.141 -22.13,0 0,24.57 22.13,0 0,28.621"
             id="path3064"
             style="fill:#7b7979;fill-opacity:1;fill-rule:nonzero;stroke:none" /><path
             d="m 2394.17,963.84 c 0,4.316 -0.1,8.457 -0.27,12.422 -0.18,3.957 -0.45,7.461 -0.8,10.527 l 30.23,0 c 0.18,-4.141 0.41,-8.367 0.67,-12.684 0.27,-4.328 0.4,-8.554 0.4,-12.695 l 0.55,0 c 1.08,2.703 2.52,5.672 4.32,8.906 1.79,3.243 4.14,6.211 7.02,8.914 2.88,2.696 6.3,4.993 10.26,6.887 3.96,1.883 8.55,2.832 13.77,2.832 1.08,0 2.07,-0.09 2.97,-0.265 0.9,-0.184 1.8,-0.372 2.7,-0.547 l 0,-31.317 c -3.25,0.899 -6.39,1.348 -9.46,1.348 -3.41,0 -6.83,-0.586 -10.25,-1.75 -3.42,-1.18 -6.52,-3.066 -9.32,-5.672 -2.79,-2.609 -5.04,-6.125 -6.75,-10.527 -1.7,-4.414 -2.56,-9.856 -2.56,-16.34 l 0,-76.141 -33.48,0 0,116.102"
             id="path3066"
             style="fill:#7b7979;fill-opacity:1;fill-rule:nonzero;stroke:none" /><path
             d="m 2606.92,870.688 c 0,-4.317 0.1,-8.458 0.28,-12.415 0.17,-3.964 0.45,-7.48 0.81,-10.535 l -31.32,0 c -0.18,3.602 -0.41,7.157 -0.67,10.664 -0.28,3.516 -0.4,7.071 -0.4,10.664 l -0.83,0.274 0.28,-0.274 c -1.62,-2.519 -3.42,-5.175 -5.4,-7.961 -1.98,-2.793 -4.42,-5.359 -7.3,-7.695 -2.87,-2.344 -6.3,-4.226 -10.25,-5.672 -3.97,-1.437 -8.64,-2.16 -14.04,-2.16 -7.92,0 -14.5,1.348 -19.71,4.055 -5.23,2.695 -9.41,6.433 -12.56,11.199 -3.14,4.766 -5.39,10.266 -6.75,16.477 -1.35,6.211 -2.02,12.82 -2.02,19.843 l 0,89.637 33.48,0 0,-83.426 c 0,-10.801 1.58,-18.547 4.72,-23.222 3.15,-4.688 8.24,-7.024 15.26,-7.024 4.49,0 8.18,0.949 11.07,2.832 2.87,1.895 5.22,4.414 7.01,7.571 1.8,3.144 3.07,6.746 3.79,10.8 0.72,4.043 1.08,8.321 1.08,12.821 l 0,79.648 33.47,0 0,-116.101"
             id="path3068"
             style="fill:#7b7979;fill-opacity:1;fill-rule:nonzero;stroke:none" /><path
             d="m 2645.26,964.113 c 0,5.032 -0.08,9.446 -0.27,13.223 -0.18,3.781 -0.45,6.934 -0.8,9.453 l 33.48,0 c 0.17,-3.601 0.41,-7.246 0.67,-10.937 0.27,-3.692 0.4,-7.332 0.4,-10.938 l 0.55,0 c 1.25,2.707 2.93,5.5 5,8.379 2.06,2.871 4.49,5.441 7.28,7.695 2.8,2.246 6.08,4.133 9.86,5.664 3.78,1.536 8.09,2.297 12.95,2.297 5.94,0 10.89,-0.812 14.86,-2.433 3.95,-1.621 7.29,-3.555 9.99,-5.801 2.69,-2.254 4.81,-4.688 6.35,-7.293 1.52,-2.61 2.83,-4.817 3.9,-6.613 1.62,2.336 3.52,4.816 5.68,7.421 2.15,2.61 4.72,5 7.69,7.161 2.97,2.156 6.39,3.953 10.27,5.398 3.86,1.438 8.4,2.16 13.63,2.16 7.56,0 13.9,-1.308 19.03,-3.918 5.13,-2.605 9.23,-6.297 12.29,-11.062 3.05,-4.778 5.26,-10.578 6.61,-17.422 1.35,-6.836 2.03,-14.492 2.03,-22.949 l 0,-85.86 -33.48,0 0,87.754 c 0,8.641 -1.4,15.117 -4.19,19.442 -2.79,4.316 -7.33,6.476 -13.64,6.476 -3.77,0 -7.06,-0.812 -9.84,-2.433 -2.8,-1.622 -5.14,-3.778 -7.03,-6.473 -1.89,-2.707 -3.32,-5.859 -4.32,-9.453 -0.99,-3.606 -1.49,-7.297 -1.49,-11.074 l 0,-84.239 -33.47,0 0,87.754 c 0,8.641 -1.4,15.117 -4.18,19.442 -2.79,4.316 -7.35,6.476 -13.64,6.476 -3.78,0 -7.06,-0.812 -9.86,-2.433 -2.79,-1.622 -5.13,-3.778 -7.02,-6.473 -1.88,-2.707 -3.33,-5.859 -4.32,-9.453 -0.99,-3.606 -1.49,-7.297 -1.49,-11.074 l 0,-84.239 -33.48,0 0,116.375"
             id="path3070"
             style="fill:#7b7979;fill-opacity:1;fill-rule:nonzero;stroke:none" /><path
             d="m 2954.95,962.219 -23.22,0 0,24.57 23.22,0 0,28.351 c 0,5.04 0.63,9.85 1.9,14.44 1.25,4.59 3.45,8.65 6.61,12.15 3.15,3.52 7.29,6.35 12.42,8.51 5.13,2.15 11.47,3.24 19.03,3.24 4.49,0 8.82,-0.36 12.96,-1.09 4.14,-0.71 7.83,-1.43 11.08,-2.15 l -1.36,-24.3 c -1.97,0.54 -4.05,1.04 -6.21,1.49 -2.15,0.45 -4.5,0.67 -7.01,0.67 -4.87,0 -8.74,-1.57 -11.62,-4.73 -2.88,-3.14 -4.32,-7.33 -4.32,-12.55 l 0,-24.031 25.39,0 0,-24.57 -25.39,0 0,-114.481 -33.48,0 0,114.481"
             id="path3072"
             style="fill:#7b7979;fill-opacity:1;fill-rule:nonzero;stroke:none" /><path
             d="m 3107.77,1040.25 25.92,0 0,-29.7 -25.92,0 0,29.7 z m -45.36,0 25.92,0 0,-29.7 -25.92,0 0,29.7 z m 90.45,-169.562 c 0,-4.317 0.09,-8.458 0.27,-12.415 0.18,-3.964 0.45,-7.48 0.81,-10.535 l -31.31,0 c -0.19,3.602 -0.41,7.157 -0.69,10.664 -0.27,3.516 -0.4,7.071 -0.4,10.664 l -0.81,0.274 0.28,-0.274 c -1.63,-2.519 -3.43,-5.175 -5.41,-7.961 -1.98,-2.793 -4.42,-5.359 -7.29,-7.695 -2.88,-2.344 -6.31,-4.226 -10.25,-5.672 -3.97,-1.437 -8.66,-2.16 -14.05,-2.16 -7.93,0 -14.49,1.348 -19.7,4.055 -5.24,2.695 -9.42,6.433 -12.56,11.199 -3.16,4.766 -5.4,10.266 -6.76,16.477 -1.35,6.211 -2.01,12.82 -2.01,19.843 l 0,89.637 33.48,0 0,-83.426 c 0,-10.801 1.57,-18.547 4.72,-23.222 3.15,-4.688 8.22,-7.024 15.26,-7.024 4.49,0 8.18,0.949 11.06,2.832 2.88,1.895 5.22,4.414 7.02,7.571 1.8,3.144 3.06,6.746 3.78,10.8 0.71,4.043 1.08,8.321 1.08,12.821 l 0,79.648 33.48,0 0,-116.101"
             id="path3074"
             style="fill:#7b7979;fill-opacity:1;fill-rule:nonzero;stroke:none" /><path
             d="m 3193.1,963.84 c 0,4.316 -0.1,8.457 -0.28,12.422 -0.18,3.957 -0.45,7.461 -0.81,10.527 l 30.25,0 c 0.17,-4.141 0.4,-8.367 0.66,-12.684 0.27,-4.328 0.41,-8.554 0.41,-12.695 l 0.55,0 c 1.07,2.703 2.51,5.672 4.31,8.906 1.8,3.243 4.14,6.211 7.02,8.914 2.88,2.696 6.3,4.993 10.26,6.887 3.95,1.883 8.54,2.832 13.77,2.832 1.08,0 2.07,-0.09 2.98,-0.265 0.9,-0.184 1.79,-0.372 2.69,-0.547 l 0,-31.317 c -3.24,0.899 -6.38,1.348 -9.45,1.348 -3.42,0 -6.84,-0.586 -10.25,-1.75 -3.43,-1.18 -6.54,-3.066 -9.32,-5.672 -2.79,-2.609 -5.04,-6.125 -6.76,-10.527 -1.71,-4.414 -2.56,-9.856 -2.56,-16.34 l 0,-76.141 -33.47,0 0,116.102"
             id="path3076"
             style="fill:#7b7979;fill-opacity:1;fill-rule:nonzero;stroke:none" /><path
             d="m 1640.89,356 0,792.64 -826.593,221.08 0,-1369.72 826.593,356"
             id="path3078"
             style="fill:#9e1831;fill-opacity:1;fill-rule:nonzero;stroke:none" /><path
             d="M 0,356 0.0195312,1148.66 814.297,1369.72 814.297,0 0,356"
             id="path3080"
             style="fill:#c4122d;fill-opacity:1;fill-rule:nonzero;stroke:none" /><path
             d="m 928.965,378.098 166.555,637.002 -160.532,16.45 0,110.33 207.312,-33.75 0,-100.06 -156.448,-617.988 158.818,40.555 0,-97.727 -215.705,-68.031 0,113.219"
             id="path3082"
             style="fill:#ffffff;fill-opacity:1;fill-rule:nonzero;stroke:none" /><path
             d="m 1228.39,451.996 36.35,9.266 c 55.94,14.277 85.08,102.16 85.08,276.66 0,158.027 -34.17,254.59 -81.05,259.406 l -40.38,4.142 0,-549.474 z m -36.28,648.014 72.96,-11.86 c 66.79,-10.91 115.94,-140.267 115.94,-344.103 0,-221.848 -42.08,-349.856 -115.94,-373.125 l -72.96,-23.043 0,752.131"
             id="path3084"
             style="fill:#ffffff;fill-opacity:1;fill-rule:nonzero;stroke:none" /><path
             d="m 1500.52,445.18 -30.73,-9.688 -69.8,630.668 30.63,-5 55.07,-543.519 0.49,0.117 52.05,525.902 23.27,-3.79 -60.98,-594.69"
             id="path3086"
             style="fill:#ffffff;fill-opacity:1;fill-rule:nonzero;stroke:none" /></g></g></g></g></svg>